<svg xmlns="http://www.w3.org/2000/svg" xmlns:xlink="http://www.w3.org/1999/xlink" width="1500" zoomAndPan="magnify" viewBox="0 0 1125 374.999991" height="500" preserveAspectRatio="xMidYMid meet" version="1.0"><defs><clipPath id="id1"><path d="M 119 168 L 734 168 L 734 375 L 119 375 Z M 119 168 " clip-rule="nonzero"/></clipPath><clipPath id="id2"><path d="M 147.066406 84.890625 L 759.007812 194.894531 L 688.015625 589.816406 L 76.074219 479.8125 Z M 147.066406 84.890625 " clip-rule="nonzero"/></clipPath><clipPath id="id3"><path d="M 147.066406 84.890625 L 759.007812 194.894531 L 688.015625 589.816406 L 76.074219 479.8125 Z M 147.066406 84.890625 " clip-rule="nonzero"/></clipPath><clipPath id="id4"><path d="M 465 136 L 1023 136 L 1023 375 L 465 375 Z M 465 136 " clip-rule="nonzero"/></clipPath><clipPath id="id5"><path d="M 421.179688 334.441406 L 914.894531 84.226562 L 1096.285156 442.136719 L 602.570312 692.351562 Z M 421.179688 334.441406 " clip-rule="nonzero"/></clipPath><clipPath id="id6"><path d="M 421.179688 334.441406 L 914.894531 84.226562 L 1096.285156 442.136719 L 602.570312 692.351562 Z M 421.179688 334.441406 " clip-rule="nonzero"/></clipPath><clipPath id="id7"><path d="M 496 111 L 713.601562 111 L 713.601562 375 L 496 375 Z M 496 111 " clip-rule="nonzero"/></clipPath><clipPath id="id8"><path d="M 205.5 237 L 487 237 L 487 375 L 205.5 375 Z M 205.5 237 " clip-rule="nonzero"/></clipPath><clipPath id="id9"><path d="M 885 175 L 1034 175 L 1034 375 L 885 375 Z M 885 175 " clip-rule="nonzero"/></clipPath><clipPath id="id10"><path d="M 984.441406 163.34375 L 1079.390625 209.898438 L 968.773438 435.488281 L 873.824219 388.933594 Z M 984.441406 163.34375 " clip-rule="nonzero"/></clipPath><clipPath id="id11"><path d="M 984.441406 163.34375 L 1079.390625 209.898438 L 968.773438 435.488281 L 873.824219 388.933594 Z M 984.441406 163.34375 " clip-rule="nonzero"/></clipPath><clipPath id="id12"><path d="M 77 172 L 214 172 L 214 375 L 77 375 Z M 77 172 " clip-rule="nonzero"/></clipPath><clipPath id="id13"><path d="M 37.5 200.597656 L 136.359375 163.050781 L 225.574219 397.925781 L 126.714844 435.476562 Z M 37.5 200.597656 " clip-rule="nonzero"/></clipPath><clipPath id="id14"><path d="M 136.304688 163.070312 L 37.445312 200.621094 L 126.660156 435.496094 L 225.519531 397.949219 Z M 136.304688 163.070312 " clip-rule="nonzero"/></clipPath></defs><g clip-path="url(#id1)"><g clip-path="url(#id2)"><g clip-path="url(#id3)"><path fill="#b65500" d="M 628.175781 171.375 C 630.015625 172.421875 631.726562 173.855469 633.691406 174.492188 C 675.800781 188.160156 707.277344 215.144531 724.148438 255.390625 C 740.226562 293.765625 734.734375 331.664062 706.992188 364.214844 C 692.832031 380.839844 673.152344 388.8125 652.5 394.332031 C 640.007812 397.691406 627.324219 400.371094 614.9375 404.03125 C 592.675781 410.609375 580.476562 429.714844 584.390625 452.5 C 586.257812 463.371094 590.121094 473.886719 592.429688 484.683594 C 594.023438 492.164062 595.363281 499.882812 595.277344 507.46875 C 595.148438 518.007812 588.796875 525.503906 579.675781 530.023438 C 533.445312 552.980469 487.402344 554.003906 442.171875 527.3125 C 415.355469 511.496094 393.472656 490.28125 375.710938 464.71875 C 366.644531 451.667969 357.238281 438.871094 347.796875 426.085938 C 344.722656 421.945312 341.152344 418.148438 337.613281 414.398438 C 325.671875 401.792969 311.625 397.074219 294.414062 402.136719 C 271.1875 408.960938 246.953125 410.503906 223.335938 408.222656 C 198.929688 405.875 176.105469 396.238281 157.84375 378.628906 C 139.832031 361.253906 127.515625 340.273438 121.957031 315.992188 C 112.859375 276.28125 127.128906 244.144531 156.992188 218.34375 C 176.902344 201.148438 201.011719 191.207031 225.941406 184.035156 C 261.433594 173.816406 297.910156 171.140625 334.53125 176.140625 C 346.78125 177.8125 358.53125 183.203125 370.5 186.894531 C 375.757812 188.53125 380.953125 190.429688 386.277344 191.773438 C 395.933594 194.195312 405.628906 196.59375 415.390625 198.476562 C 434.496094 202.164062 453.667969 201.703125 472.515625 197.191406 C 499.820312 190.640625 526.96875 183.449219 554.171875 176.5 C 560.617188 174.851562 566.957031 172.71875 573.476562 171.4375 C 584.734375 169.210938 596.058594 167.765625 607.605469 169.808594 C 610.699219 170.363281 614.027344 169.5625 617.238281 169.386719 C 620.871094 170.0625 624.519531 170.71875 628.175781 171.375 Z M 628.175781 171.375 " fill-opacity="1" fill-rule="evenodd"/></g></g></g><g clip-path="url(#id4)"><g clip-path="url(#id5)"><g clip-path="url(#id6)"><path fill="#b65500" d="M 775.640625 155.652344 C 802.019531 142.003906 828.675781 138.355469 855.824219 136.835938 C 880.035156 135.480469 903.140625 140.019531 925.316406 149.683594 C 949.113281 160.058594 962.191406 178.269531 963.519531 204.050781 C 964.148438 216.140625 963.023438 228.386719 961.875 240.484375 C 960.714844 252.550781 960.578125 264.492188 966.632812 275.195312 C 972.757812 286.015625 980.015625 296.210938 986.972656 306.550781 C 993.425781 316.144531 1001.035156 325.074219 1006.546875 335.164062 C 1023.722656 366.640625 1026.609375 399.953125 1017.484375 434.523438 C 1007.511719 472.398438 984.152344 498.90625 948.777344 514.816406 C 941.921875 517.898438 933.898438 519.574219 926.355469 519.746094 C 913.925781 520.011719 901.324219 519.484375 889.050781 517.589844 C 864.792969 513.847656 841.09375 514.835938 817.902344 522.96875 C 806.375 527.003906 795.550781 532.441406 786.03125 540.347656 C 767.792969 555.484375 747.941406 567.882812 724.472656 572.960938 C 704.414062 577.300781 684.367188 576.894531 664.554688 570.742188 C 650.128906 566.261719 641.777344 556.433594 637.882812 542.238281 C 633.253906 525.359375 628.628906 508.472656 623.90625 491.621094 C 620.621094 479.949219 614.1875 469.976562 606.546875 460.765625 C 601.910156 455.1875 595.839844 452.042969 588.511719 452.828125 C 581.460938 453.597656 574.375 454.675781 567.484375 456.351562 C 554.171875 459.585938 540.914062 462.882812 527.058594 461.828125 C 507.707031 460.351562 490.636719 454.09375 477.515625 438.878906 C 468.863281 428.855469 464.796875 417.074219 465.496094 404.375 C 467.585938 366.179688 482.023438 333.589844 511.605469 308.453125 C 522.21875 299.429688 534.914062 295.5 548.414062 294.109375 C 559.925781 292.917969 571.511719 292.226562 583.078125 291.804688 C 602.050781 291.121094 620.132812 287.789062 636.933594 278.210938 C 649.5625 271.015625 659.597656 261.023438 669.644531 250.914062 C 691.8125 228.601562 713.6875 205.984375 736.183594 183.988281 C 748.308594 172.144531 762.007812 162.140625 775.640625 155.652344 Z M 775.640625 155.652344 " fill-opacity="1" fill-rule="evenodd"/></g></g></g><path fill="#ba6f3c" d="M 524.726562 380.144531 L 705.175781 380.144531 C 705.175781 380.144531 687.546875 296.898438 674.675781 280.441406 C 661.8125 263.984375 680.398438 221.730469 682.777344 196.378906 C 685.15625 171.027344 681.347656 146.121094 659.429688 135.445312 C 637.507812 124.765625 605.109375 124.765625 590.808594 137.226562 C 576.511719 149.683594 543.160156 239.960938 545.066406 263.539062 C 546.972656 287.109375 522.96875 330.53125 524.726562 380.144531 Z M 524.726562 380.144531 " fill-opacity="1" fill-rule="nonzero"/><path fill="#e5caca" d="M 551.738281 380.144531 C 551.738281 380.144531 568.417969 313.355469 566.988281 301.789062 C 565.558594 290.222656 547.925781 304.011719 547.925781 304.011719 C 547.925781 304.011719 521.0625 373.679688 524.726562 380.144531 Z M 551.738281 380.144531 " fill-opacity="1" fill-rule="nonzero"/><path fill="#e5caca" d="M 560.316406 380.144531 C 560.316406 380.144531 581.757812 299.566406 637.511719 277.324219 C 637.511719 277.324219 689.453125 309.792969 695.648438 329.808594 C 701.839844 349.824219 705.175781 380.144531 705.175781 380.144531 Z M 560.316406 380.144531 " fill-opacity="1" fill-rule="nonzero"/><g clip-path="url(#id7)"><path fill="#2b0f0f" d="M 508.183594 380.144531 C 505.09375 373.554688 490.09375 359.34375 500.238281 344.519531 C 510.386719 329.691406 521.859375 335.046875 517.890625 314.042969 C 513.917969 293.039062 514.140625 281.714844 525.609375 271.417969 C 537.082031 261.121094 522.519531 232.703125 518.988281 221.175781 C 515.460938 209.648438 530.902344 173.402344 543.257812 167.636719 C 555.613281 161.867188 558.699219 158.164062 560.46875 147.046875 C 562.234375 135.929688 574.402344 119.457031 589.84375 113.6875 C 605.285156 107.917969 641.964844 112.519531 661.949219 119.390625 C 676.105469 124.261719 701.21875 147.453125 698.570312 175.460938 C 695.921875 203.464844 704.746094 215.820312 700.777344 226.9375 C 696.808594 238.058594 687.542969 252.058594 690.628906 267.300781 C 693.71875 282.539062 694.597656 313.839844 701.664062 326.195312 C 708.71875 338.550781 713.578125 357.082031 713.578125 366.140625 C 713.578125 375.199219 712.683594 380.144531 712.683594 380.144531 L 699.890625 380.144531 C 699.890625 380.144531 695.648438 336.035156 681.359375 313.421875 C 674.210938 302.113281 646.503906 287.480469 639.441406 281.300781 C 632.382812 275.125 631.195312 254.722656 633.703125 252.066406 C 637.984375 247.527344 646.941406 235.175781 646.941406 235.175781 C 646.941406 235.175781 651.796875 240.117188 655.765625 236.414062 C 659.734375 232.707031 672.089844 215.410156 667.238281 213.765625 C 662.382812 212.117188 662.382812 212.117188 662.382812 212.117188 C 662.382812 212.117188 674.296875 182.878906 670.765625 175.878906 C 667.238281 168.878906 667.679688 163.113281 667.238281 157.761719 C 666.796875 152.40625 656.207031 143.347656 652.234375 146.640625 C 648.265625 149.9375 664.085938 164.433594 668.324219 178.589844 C 671.605469 189.566406 664.140625 200.730469 657.519531 210.617188 C 657.519531 210.617188 668.640625 187.621094 664.671875 178.152344 C 660.699219 168.679688 646.945312 147.054688 640.769531 142.523438 C 634.589844 137.996094 626.648438 129.761719 621.355469 138.410156 C 616.066406 147.054688 611.210938 149.941406 602.824219 149.941406 C 594.441406 149.941406 582.085938 152.003906 580.324219 161.058594 C 578.5625 170.117188 568.203125 185.765625 565.554688 197.710938 C 563.050781 209.011719 558.027344 223.226562 565.660156 236.621094 C 566.574219 238.222656 567.042969 239.988281 567.164062 241.800781 C 567.78125 250.785156 570.929688 275.566406 568.847656 304.367188 C 568.492188 309.296875 547.226562 326.195312 543.257812 330.726562 C 539.289062 335.257812 524.726562 380.144531 524.726562 380.144531 Z M 508.183594 380.144531 " fill-opacity="1" fill-rule="nonzero"/></g><path fill="#2b0f0f" d="M 634.144531 184.980469 C 633.140625 184.371094 633.039062 183.042969 633.902344 182.273438 C 634.957031 181.339844 636.757812 180.324219 639.414062 180.664062 C 644.070312 181.253906 655.296875 184.617188 656.78125 187.1875 C 658.261719 189.757812 660.59375 196.871094 660.59375 196.871094 C 660.59375 196.871094 654.25 190.515625 652.546875 189.953125 C 645.34375 187.578125 638.519531 187.617188 634.144531 184.980469 Z M 634.144531 184.980469 " fill-opacity="1" fill-rule="nonzero"/><path fill="#2b0f0f" d="M 614.179688 176.949219 C 615.324219 177.285156 616.484375 176.507812 616.566406 175.390625 C 616.660156 174.039062 616.351562 172.101562 614.375 170.40625 C 610.910156 167.441406 600.96875 161.527344 597.90625 162.101562 C 594.84375 162.679688 587.484375 165.550781 587.484375 165.550781 C 587.484375 165.550781 596.777344 166.046875 598.328125 166.914062 C 604.882812 170.566406 609.210938 175.496094 614.179688 176.949219 Z M 614.179688 176.949219 " fill-opacity="1" fill-rule="nonzero"/><path fill="#7c1d1d" d="M 617.8125 235.613281 C 617.8125 235.613281 614.390625 230.042969 613.75 227.675781 C 613.117188 225.300781 610.824219 223.558594 606.585938 224.941406 C 606.585938 224.941406 604.234375 221.695312 602.773438 221.386719 C 600.015625 220.792969 593.242188 224.351562 588.582031 224.742188 C 588.582031 224.742188 589.855469 232.253906 599.59375 236.011719 C 608.90625 239.597656 617.8125 235.613281 617.8125 235.613281 Z M 617.8125 235.613281 " fill-opacity="1" fill-rule="nonzero"/><path fill="#7c4121" d="M 895.78125 414.914062 L 719.421875 414.914062 C 719.421875 414.914062 713.910156 334.765625 736.292969 322.363281 C 758.675781 309.960938 797.925781 299.277344 800.335938 296.175781 C 800.335938 296.175781 799.03125 280.898438 795.558594 271.996094 C 793.6875 267.195312 791.191406 264.253906 787.941406 266.542969 C 787.117188 267.121094 786.210938 267.742188 785.238281 268.375 C 775.265625 274.929688 758.46875 283.804688 752.816406 280.667969 C 746.617188 277.222656 745.238281 267.230469 743.175781 266.542969 C 741.109375 265.855469 741.457031 261.027344 741.457031 261.027344 L 734.222656 251.035156 C 734.222656 251.035156 736.945312 247.945312 737.386719 245.335938 C 737.605469 244.039062 736.679688 242.8125 735.378906 242.609375 C 732.222656 242.105469 724.367188 240.183594 726.304688 233.8125 C 728.714844 225.890625 734.222656 217.617188 732.847656 210.730469 C 731.476562 203.839844 723.554688 198.667969 723.554688 192.117188 C 723.554688 185.570312 724.242188 165.589844 724.242188 165.589844 C 724.242188 165.589844 727.347656 151.804688 761.429688 154.910156 C 795.511719 158.011719 843.378906 183.855469 843.378906 183.855469 L 849.230469 241.394531 C 849.230469 241.394531 854.054688 268.617188 860.9375 275.855469 C 867.820312 283.089844 886.671875 287.378906 892.960938 296.179688 C 919.320312 333.078125 895.78125 414.914062 895.78125 414.914062 Z M 895.78125 414.914062 " fill-opacity="1" fill-rule="nonzero"/><path fill="#2d0303" d="M 724.066406 165.761719 C 727.855469 164.039062 739.90625 154.042969 741.972656 161.96875 C 744.039062 169.890625 745.414062 174.371094 754.367188 173.683594 C 763.320312 172.996094 758.15625 178.511719 767.796875 180.574219 C 777.4375 182.636719 774.679688 186.425781 781.226562 190.21875 C 787.769531 194.011719 785.53125 198.660156 793.105469 205.207031 C 800.683594 211.757812 803.777344 202.796875 809.636719 207.277344 C 815.484375 211.757812 818.933594 212.105469 816.867188 223.820312 C 814.800781 235.535156 822.378906 223.820312 823.753906 234.847656 C 825.125 245.875 808.949219 238.980469 815.484375 252.078125 C 822.03125 265.167969 834.078125 258.625 834.078125 258.625 C 834.078125 258.625 823.058594 261.382812 821.335938 255.179688 C 819.617188 248.980469 817.207031 248.980469 824.4375 242.777344 C 831.671875 236.578125 829.261719 229.339844 825.8125 227.617188 C 822.371094 225.894531 817.546875 222.792969 821.683594 219.695312 C 825.8125 216.589844 828.914062 213.839844 825.125 209.015625 C 821.335938 204.1875 821.335938 202.125 816.859375 197.644531 C 812.382812 193.167969 814.792969 188.6875 819.960938 186.277344 C 825.125 183.867188 835.113281 189.722656 835.113281 197.992188 C 835.113281 206.261719 830.984375 209.707031 835.460938 212.464844 C 839.9375 215.222656 837.179688 216.257812 838.214844 221.421875 C 839.25 226.589844 840.285156 224.867188 843.378906 232.792969 C 846.480469 240.714844 844.066406 245.882812 849.230469 241.402344 C 854.394531 236.921875 864.726562 232.792969 860.9375 238.992188 C 857.148438 245.195312 848.542969 252.082031 858.183594 253.117188 C 867.820312 254.152344 868.855469 245.882812 865.761719 247.265625 C 865.761719 247.265625 867.480469 249.332031 862.320312 250.019531 C 857.15625 250.707031 856.46875 248.984375 861.972656 243.820312 C 867.480469 238.652344 867.480469 230.382812 861.972656 232.105469 C 856.460938 233.828125 850.609375 236.929688 852.332031 229.695312 C 854.054688 222.457031 863.351562 223.144531 866.796875 210.402344 C 870.238281 197.660156 863.351562 195.929688 866.449219 189.730469 C 869.550781 183.527344 877.121094 180.769531 876.433594 190.074219 C 875.746094 199.382812 865.414062 202.824219 868.515625 217.296875 C 871.617188 231.769531 885.386719 222.125 884.011719 216.609375 C 884.011719 216.609375 878.851562 227.292969 874.714844 220.742188 C 870.585938 214.195312 882.632812 202.824219 881.945312 191.796875 C 881.257812 180.769531 873.679688 181.464844 871.957031 182.152344 C 870.238281 182.839844 879.191406 173.195312 875.402344 171.125 C 871.613281 169.054688 877.46875 166.296875 879.53125 170.089844 C 881.597656 173.882812 881.9375 183.179688 884.355469 180.769531 C 886.769531 178.359375 889.515625 173.1875 889.515625 173.1875 C 889.515625 173.1875 888.828125 179.734375 885.386719 175.597656 C 881.945312 171.464844 879.878906 164.226562 877.46875 164.226562 C 875.0625 164.226562 885.386719 163.882812 886.421875 157.679688 C 887.457031 151.476562 888.488281 146.3125 882.632812 147 C 882.632812 147 877.46875 137.351562 886.074219 134.597656 C 894.679688 131.839844 892.960938 123.226562 884.007812 119.089844 C 875.054688 114.957031 884.695312 104.277344 889.171875 110.816406 C 893.648438 117.367188 898.808594 105.652344 887.449219 98.753906 C 876.089844 91.859375 885.382812 105.644531 877.808594 105.304688 C 870.230469 104.957031 870.230469 91.867188 877.808594 93.242188 C 885.386719 94.617188 884.695312 88.074219 879.878906 87.039062 C 875.0625 86.003906 872.296875 92.554688 867.136719 89.449219 C 861.972656 86.347656 874.714844 79.804688 863.691406 82.902344 C 852.671875 86 854.738281 82.214844 848.890625 82.554688 C 843.039062 82.902344 845.785156 74.96875 839.9375 76.699219 C 834.085938 78.429688 834.085938 74.289062 825.820312 76.699219 C 817.554688 79.109375 815.832031 78.769531 807.914062 76.351562 C 799.996094 73.9375 800.683594 72.90625 795.859375 80.144531 C 791.035156 87.378906 787.59375 74.628906 784.152344 82.554688 C 780.710938 90.476562 770.730469 85.304688 773.136719 92.199219 C 775.546875 99.097656 764.871094 89.789062 766.253906 99.785156 C 767.632812 109.777344 773.832031 106.332031 765.90625 112.875 C 757.980469 119.414062 761.777344 105.984375 754.542969 116.320312 C 747.3125 126.652344 741.460938 115.972656 737.671875 124.929688 C 733.882812 133.886719 738.707031 133.539062 728.03125 138.367188 C 717.351562 143.195312 724.066406 165.761719 724.066406 165.761719 Z M 724.066406 165.761719 " fill-opacity="1" fill-rule="nonzero"/><path fill="#562917" d="M 801.71875 294.792969 C 801.71875 294.792969 811.015625 288.246094 812.738281 282.042969 C 814.460938 275.839844 827.886719 264.8125 827.886719 264.8125 C 827.886719 264.8125 816.527344 271.703125 814.460938 275.839844 C 812.390625 279.980469 803.097656 293.417969 801.71875 294.792969 Z M 801.71875 294.792969 " fill-opacity="1" fill-rule="nonzero"/><path fill="#2d0303" d="M 731.699219 199.914062 L 732.523438 201.859375 C 733.191406 203.433594 735.339844 203.589844 736.238281 202.136719 C 738.414062 198.632812 743.933594 193.574219 748.679688 193.792969 C 756.257812 194.140625 762.804688 194.875 762.804688 194.875 C 762.804688 194.875 746.667969 189.121094 743.222656 190.15625 C 740.53125 190.96875 734.964844 193.691406 732.367188 196.332031 C 731.441406 197.277344 731.183594 198.695312 731.699219 199.914062 Z M 731.699219 199.914062 " fill-opacity="1" fill-rule="nonzero"/><path fill="#4f0707" d="M 752.824219 254.480469 C 752.824219 254.480469 744.734375 253.617188 740.257812 250.519531 C 735.78125 247.421875 733.007812 249.359375 732.507812 250.6875 C 731.746094 252.75 731.824219 259.992188 741.117188 257.578125 C 750.414062 255.175781 752.824219 254.480469 752.824219 254.480469 Z M 752.824219 254.480469 " fill-opacity="1" fill-rule="nonzero"/><path fill="#4f0707" d="M 752.824219 254.480469 C 752.824219 254.480469 750.066406 261.027344 744.90625 264.125 C 739.742188 267.222656 737.671875 264.472656 737.671875 262.402344 C 737.671875 260.335938 737.671875 258.613281 740.082031 257.578125 C 742.488281 256.542969 752.824219 254.480469 752.824219 254.480469 Z M 752.824219 254.480469 " fill-opacity="1" fill-rule="nonzero"/><path fill="#562917" d="M 809.566406 250.761719 C 806.28125 252.878906 800.191406 263.371094 795.566406 271.988281 C 793.695312 267.1875 791.199219 264.25 787.949219 266.535156 C 787.125 267.113281 786.21875 267.734375 785.246094 268.367188 C 788.710938 261.171875 805.914062 252.53125 809.566406 250.761719 Z M 809.566406 250.761719 " fill-opacity="1" fill-rule="nonzero"/><path fill="#663c24" d="M 810.234375 250.441406 C 810.171875 250.476562 809.941406 250.578125 809.566406 250.761719 C 809.804688 250.613281 810.03125 250.503906 810.234375 250.441406 Z M 810.234375 250.441406 " fill-opacity="1" fill-rule="nonzero"/><path fill="#562917" d="M 822.519531 225.132812 C 822.519531 225.132812 828.472656 218.433594 831.445312 217.320312 C 834.417969 216.203125 834.050781 213.59375 834.050781 213.59375 C 834.050781 213.59375 832.5625 218.433594 830.332031 220.292969 C 828.097656 222.152344 822.519531 225.132812 822.519531 225.132812 Z M 822.519531 225.132812 " fill-opacity="1" fill-rule="nonzero"/><path fill="#562917" d="M 816.941406 194.621094 C 816.941406 194.621094 821.777344 189.042969 824.378906 189.042969 C 826.976562 189.042969 834.792969 192.390625 833.304688 200.203125 C 831.8125 208.019531 828.097656 214.34375 828.097656 214.34375 C 828.097656 214.34375 833.675781 202.804688 831.070312 197.972656 C 828.464844 193.140625 826.609375 190.15625 823.261719 191.648438 C 819.914062 193.140625 816.941406 194.621094 816.941406 194.621094 Z M 816.941406 194.621094 " fill-opacity="1" fill-rule="nonzero"/><path fill="#562917" d="M 822.894531 199.832031 C 822.894531 199.832031 828.847656 200.945312 828.847656 203.179688 C 828.847656 205.414062 829.222656 208.019531 829.222656 208.019531 C 829.222656 208.019531 825.867188 200.574219 822.894531 199.832031 Z M 822.894531 199.832031 " fill-opacity="1" fill-rule="nonzero"/><path fill="#160505" d="M 747.777344 149.21875 C 747.027344 137.3125 763.394531 136.570312 767.859375 137.3125 C 772.320312 138.054688 773.8125 127.640625 780.503906 122.425781 C 787.199219 117.210938 794.636719 126.148438 794.636719 126.148438 C 794.636719 126.148438 780.503906 121.683594 779.757812 129.871094 C 779.007812 138.0625 770.089844 143.269531 761.164062 142.527344 C 752.238281 141.785156 747.777344 149.21875 747.777344 149.21875 Z M 747.777344 149.21875 " fill-opacity="1" fill-rule="nonzero"/><path fill="#160505" d="M 827.148438 120.042969 C 827.710938 117.617188 828.882812 115.488281 830.4375 113.574219 C 831.230469 112.628906 832.113281 111.730469 833.167969 110.980469 C 834.203125 110.207031 835.40625 109.574219 836.757812 109.273438 C 838.101562 108.953125 839.570312 109.019531 840.890625 109.339844 C 842.222656 109.675781 843.390625 110.238281 844.472656 110.839844 C 845.554688 111.445312 846.550781 112.113281 847.523438 112.828125 C 848.488281 113.539062 849.472656 114.261719 850.40625 115.050781 C 851.34375 115.84375 852.257812 116.671875 853.054688 117.589844 C 853.449219 118.054688 853.835938 118.515625 854.175781 119.015625 L 855.175781 120.449219 C 856.453125 122.324219 857.761719 124.152344 858.863281 126.011719 C 859.972656 127.851562 861.003906 129.734375 862.121094 130.960938 C 862.6875 131.558594 863.257812 132.007812 864.167969 132.289062 C 865.074219 132.546875 866.214844 132.574219 867.425781 132.613281 L 867.609375 133.097656 C 866.6875 133.910156 865.609375 134.597656 864.242188 134.929688 C 863.5625 135.101562 862.792969 135.152344 862.03125 135.046875 C 861.265625 134.949219 860.53125 134.683594 859.863281 134.363281 C 858.503906 133.703125 857.515625 132.800781 856.597656 131.894531 C 856.15625 131.4375 855.71875 130.96875 855.34375 130.492188 C 854.945312 130.023438 854.582031 129.523438 854.25 129.042969 C 852.875 127.082031 851.890625 124.96875 850.929688 122.875 L 850.230469 121.347656 C 850.003906 120.851562 849.78125 120.363281 849.5625 119.859375 C 849.128906 118.859375 848.710938 117.84375 848.214844 116.855469 C 847.261719 114.894531 845.761719 113.105469 843.765625 112.363281 C 842.785156 111.996094 841.71875 111.960938 840.773438 112.207031 C 839.820312 112.429688 838.996094 112.902344 838.203125 113.351562 L 835.757812 114.792969 C 834.921875 115.304688 834.070312 115.902344 833.207031 116.515625 C 831.464844 117.746094 829.703125 119.128906 827.570312 120.367188 Z M 827.148438 120.042969 " fill-opacity="1" fill-rule="nonzero"/><path fill="#160505" d="M 805.621094 187.203125 C 805.078125 185.890625 804.90625 184.359375 805.1875 182.867188 C 805.4375 181.363281 806.132812 179.941406 807.03125 178.726562 C 807.949219 177.523438 809.0625 176.507812 810.269531 175.65625 C 811.464844 174.785156 812.777344 174.140625 814.140625 173.671875 C 815.5 173.195312 816.914062 172.921875 818.316406 172.730469 C 819.71875 172.527344 821.113281 172.425781 822.492188 172.296875 C 823.875 172.164062 825.253906 172.078125 826.65625 172.035156 C 828.050781 172.023438 829.472656 172.015625 830.929688 172.261719 C 831.65625 172.390625 832.390625 172.566406 833.125 172.875 C 833.488281 173.035156 833.863281 173.179688 834.214844 173.433594 C 834.390625 173.546875 834.570312 173.664062 834.738281 173.785156 L 835.230469 174.234375 C 835.570312 174.515625 835.8125 174.9375 836.078125 175.316406 C 836.261719 175.597656 836.398438 175.835938 836.582031 176.09375 C 836.9375 176.589844 837.304688 177.09375 837.71875 177.5625 C 839.363281 179.46875 841.371094 181.117188 843.425781 182.601562 C 845.472656 184.070312 847.707031 185.378906 849.964844 185.890625 C 850.523438 185.976562 851.078125 186.050781 851.617188 186.003906 C 852.140625 185.9375 852.65625 185.8125 853.148438 185.550781 C 854.101562 184.996094 854.890625 183.921875 855.453125 182.667969 L 855.789062 182.746094 C 855.789062 184.140625 855.40625 185.691406 854.257812 186.917969 C 853.679688 187.507812 852.929688 187.957031 852.140625 188.230469 C 851.34375 188.496094 850.527344 188.597656 849.734375 188.589844 C 848.140625 188.570312 846.652344 188.183594 845.257812 187.660156 C 843.855469 187.136719 842.5625 186.433594 841.34375 185.636719 C 838.914062 184.023438 836.847656 181.953125 835.148438 179.558594 C 834.71875 178.960938 834.324219 178.328125 833.96875 177.664062 C 833.792969 177.347656 833.628906 176.964844 833.480469 176.652344 C 833.425781 176.554688 833.371094 176.460938 833.332031 176.359375 C 833.296875 176.25 833.234375 176.15625 833.152344 176.058594 C 832.617188 175.285156 831.601562 174.546875 830.433594 174.078125 C 829.261719 173.601562 827.957031 173.296875 826.628906 173.199219 C 825.304688 173.085938 823.957031 173.152344 822.644531 173.390625 C 819.996094 173.839844 817.539062 175.074219 815.28125 176.304688 C 813.011719 177.515625 810.8125 178.753906 809.058594 180.46875 C 808.199219 181.335938 807.472656 182.300781 806.929688 183.40625 C 806.398438 184.515625 806.085938 185.765625 805.957031 187.148438 Z M 805.621094 187.203125 " fill-opacity="1" fill-rule="nonzero"/><path fill="#160505" d="M 852.542969 221.554688 C 850.855469 221.097656 849.40625 220.199219 848.132812 219.035156 C 847.5 218.449219 846.921875 217.78125 846.433594 217.011719 C 845.9375 216.25 845.550781 215.359375 845.433594 214.359375 C 845.304688 213.363281 845.515625 212.273438 845.992188 211.390625 C 846.460938 210.496094 847.148438 209.859375 847.792969 209.285156 C 849.148438 208.222656 850.550781 207.359375 852.011719 206.496094 C 853.414062 205.644531 854.664062 204.875 855.84375 204.058594 C 856.40625 203.628906 856.9375 203.179688 857.394531 202.695312 C 857.855469 202.21875 858.269531 201.738281 858.609375 201.226562 C 859.324219 200.226562 859.816406 199.09375 860.027344 197.734375 C 860.257812 196.371094 860.160156 194.847656 859.929688 193.222656 L 860.222656 193.035156 C 860.898438 193.609375 861.421875 194.308594 861.84375 195.078125 C 862.277344 195.847656 862.570312 196.710938 862.746094 197.625 C 863.09375 199.449219 862.742188 201.539062 861.707031 203.214844 C 861.195312 204.050781 860.550781 204.78125 859.820312 205.359375 C 859.109375 205.964844 858.316406 206.421875 857.535156 206.835938 C 856.746094 207.230469 855.949219 207.585938 855.113281 207.796875 C 854.304688 208.039062 853.414062 208.148438 852.644531 208.273438 C 851.113281 208.460938 849.578125 208.992188 848.5625 210.082031 C 848.078125 210.632812 847.8125 211.320312 847.800781 211.953125 C 847.78125 212.59375 848 213.152344 848.230469 213.703125 C 848.472656 214.253906 848.753906 214.828125 849.066406 215.441406 C 849.394531 216.039062 849.765625 216.660156 850.167969 217.277344 C 850.976562 218.53125 851.890625 219.796875 852.738281 221.265625 Z M 852.542969 221.554688 " fill-opacity="1" fill-rule="nonzero"/><path fill="#160505" d="M 775.871094 171.492188 C 776.445312 168.964844 777.273438 166.523438 778.261719 164.132812 C 778.75 162.933594 779.289062 161.757812 779.878906 160.59375 C 780.464844 159.429688 781.089844 158.285156 781.789062 157.175781 C 782.492188 156.066406 783.234375 154.976562 784.050781 153.921875 C 784.894531 152.894531 785.777344 151.878906 786.769531 150.953125 C 787.769531 150.027344 788.859375 149.164062 790.097656 148.46875 C 791.335938 147.78125 792.730469 147.296875 794.171875 147.082031 C 795.613281 146.847656 797.144531 147.027344 798.484375 147.429688 C 799.832031 147.828125 801.105469 148.433594 802.226562 149.21875 C 803.34375 150.007812 804.335938 150.921875 805.21875 151.898438 C 806.117188 152.867188 806.914062 153.886719 807.691406 154.910156 C 808.472656 155.921875 809.234375 156.945312 810.058594 157.890625 C 810.878906 158.832031 811.738281 159.742188 812.746094 160.375 C 813.234375 160.707031 813.773438 160.925781 814.308594 161.105469 C 814.859375 161.21875 815.417969 161.292969 815.976562 161.226562 C 817.089844 161.132812 818.171875 160.640625 819.195312 160.035156 C 820.207031 159.414062 821.152344 158.640625 822.066406 157.824219 C 822.519531 157.421875 822.949219 156.964844 823.398438 156.542969 L 824.785156 155.195312 C 826.671875 153.410156 828.699219 151.75 830.886719 150.246094 C 833.09375 148.769531 835.472656 147.40625 838.296875 146.714844 C 839.699219 146.359375 841.234375 146.238281 842.773438 146.476562 C 844.316406 146.691406 845.800781 147.359375 847.046875 148.238281 C 848.269531 149.144531 849.277344 150.21875 850.09375 151.363281 C 850.5 151.933594 850.882812 152.519531 851.222656 153.113281 C 851.398438 153.40625 851.5625 153.703125 851.710938 154.003906 C 851.789062 154.140625 851.882812 154.335938 851.9375 154.417969 L 852.113281 154.726562 C 852.582031 155.542969 853.296875 156.148438 854.238281 156.550781 C 855.15625 156.972656 856.265625 157.195312 857.421875 157.257812 C 859.746094 157.378906 862.222656 156.984375 864.652344 156.441406 C 867.085938 155.867188 869.515625 155.125 871.910156 154.261719 L 872.066406 154.570312 C 869.910156 155.984375 867.597656 157.164062 865.175781 158.121094 C 863.964844 158.605469 862.71875 159.027344 861.425781 159.339844 C 860.140625 159.660156 858.808594 159.914062 857.421875 159.96875 C 856.039062 160.019531 854.578125 159.914062 853.121094 159.410156 C 852.394531 159.171875 851.691406 158.777344 851.03125 158.3125 C 850.394531 157.816406 849.800781 157.238281 849.351562 156.578125 L 849.019531 156.074219 L 848.761719 155.664062 C 848.605469 155.40625 848.445312 155.152344 848.285156 154.910156 C 847.964844 154.414062 847.625 153.941406 847.269531 153.492188 C 846.554688 152.601562 845.78125 151.824219 844.9375 151.234375 C 843.257812 150.0625 841.269531 149.769531 839.09375 150.21875 C 836.929688 150.65625 834.738281 151.730469 832.65625 152.984375 C 830.574219 154.253906 828.574219 155.738281 826.601562 157.285156 L 825.125 158.460938 C 824.59375 158.855469 824.085938 159.273438 823.542969 159.652344 C 822.453125 160.410156 821.324219 161.132812 820.078125 161.695312 C 818.839844 162.253906 817.472656 162.667969 816.039062 162.675781 C 815.324219 162.691406 814.609375 162.535156 813.933594 162.316406 C 813.273438 162.058594 812.640625 161.742188 812.105469 161.328125 C 809.90625 159.6875 808.507812 157.496094 806.847656 155.589844 C 806.023438 154.628906 805.164062 153.710938 804.246094 152.886719 C 803.316406 152.078125 802.328125 151.363281 801.269531 150.832031 C 800.207031 150.300781 799.089844 149.953125 797.953125 149.789062 C 797.382812 149.679688 796.839844 149.679688 796.292969 149.667969 L 795.484375 149.734375 C 795.21875 149.777344 794.953125 149.84375 794.6875 149.886719 C 793.628906 150.117188 792.621094 150.578125 791.640625 151.136719 C 790.667969 151.714844 789.738281 152.425781 788.839844 153.195312 C 787.0625 154.773438 785.492188 156.664062 784.015625 158.652344 C 781.089844 162.65625 778.605469 167.082031 776.210938 171.585938 Z M 775.871094 171.492188 " fill-opacity="1" fill-rule="nonzero"/><path fill="#160505" d="M 784.183594 110.355469 C 785.355469 109.804688 786.574219 109.4375 787.804688 109.144531 C 789.035156 108.835938 790.292969 108.652344 791.558594 108.539062 C 792.824219 108.429688 794.105469 108.402344 795.382812 108.46875 C 796.664062 108.523438 797.941406 108.699219 799.191406 109.046875 C 801.703125 109.734375 804.003906 111.027344 806.171875 112.324219 C 807.269531 112.976562 808.308594 113.699219 809.316406 114.492188 C 809.824219 114.890625 810.296875 115.324219 810.785156 115.761719 L 812.125 117.140625 L 813.398438 118.457031 C 813.839844 118.871094 814.273438 119.300781 814.695312 119.730469 L 815.984375 120.996094 C 816.40625 121.425781 816.832031 121.839844 817.277344 122.234375 C 819.015625 123.859375 820.867188 125.324219 822.730469 126.679688 C 826.445312 129.375 830.5625 131.539062 835.480469 130.457031 L 835.636719 130.761719 C 833.644531 132.425781 830.726562 132.996094 828.042969 132.628906 C 827.363281 132.554688 826.726562 132.371094 826.050781 132.226562 C 825.410156 132.03125 824.785156 131.792969 824.148438 131.566406 C 823.542969 131.300781 822.9375 131.015625 822.34375 130.714844 C 821.773438 130.394531 821.207031 130.046875 820.644531 129.707031 C 818.453125 128.257812 816.609375 126.414062 814.933594 124.492188 C 814.511719 124.015625 814.089844 123.535156 813.710938 123.023438 C 813.328125 122.511719 812.914062 122.035156 812.574219 121.492188 C 812.222656 120.96875 811.875 120.429688 811.546875 119.890625 L 810.609375 118.246094 C 810.28125 117.679688 810.015625 117.203125 809.683594 116.707031 L 809.152344 116.003906 C 808.96875 115.773438 808.757812 115.570312 808.554688 115.351562 C 807.710938 114.519531 806.738281 113.800781 805.65625 113.289062 C 804.574219 112.773438 803.402344 112.457031 802.234375 112.253906 C 801.050781 112.0625 799.867188 111.96875 798.691406 111.867188 C 797.511719 111.757812 796.34375 111.648438 795.164062 111.511719 C 793.988281 111.398438 792.796875 111.292969 791.601562 111.207031 C 789.207031 111.027344 786.777344 110.898438 784.265625 110.675781 Z M 784.183594 110.355469 " fill-opacity="1" fill-rule="nonzero"/><path fill="#160505" d="M 793.023438 96.265625 C 794.007812 94.78125 795.199219 93.453125 796.492188 92.226562 C 797.777344 90.988281 799.191406 89.878906 800.738281 88.917969 C 802.273438 87.953125 803.949219 87.140625 805.773438 86.625 C 806.667969 86.347656 807.628906 86.1875 808.589844 86.09375 C 809.5625 86.046875 810.546875 86.066406 811.511719 86.277344 C 812.484375 86.453125 813.410156 86.828125 814.28125 87.25 C 814.703125 87.503906 815.125 87.742188 815.511719 88.019531 C 815.886719 88.328125 816.289062 88.585938 816.617188 88.925781 C 817.300781 89.550781 817.921875 90.289062 818.472656 90.953125 C 819.023438 91.609375 819.5625 92.289062 820.167969 92.894531 C 820.773438 93.492188 821.371094 94.121094 822.042969 94.636719 C 822.378906 94.902344 822.699219 95.179688 823.042969 95.425781 C 823.390625 95.664062 823.753906 95.890625 824.105469 96.121094 C 825.542969 97 827.113281 97.597656 828.710938 97.863281 C 830.316406 98.136719 831.964844 98.039062 833.625 97.9375 C 835.28125 97.824219 836.992188 97.632812 838.699219 97.457031 C 840.417969 97.257812 842.148438 97.074219 843.890625 96.925781 L 845.195312 96.816406 L 845.847656 96.769531 L 846.554688 96.746094 C 847.023438 96.726562 847.496094 96.734375 847.972656 96.761719 C 848.445312 96.78125 848.921875 96.808594 849.394531 96.882812 C 853.1875 97.324219 856.984375 99.363281 859.230469 102.453125 C 860.371094 103.96875 861.203125 105.65625 861.734375 107.40625 C 862.265625 109.148438 862.554688 110.933594 862.488281 112.730469 L 862.148438 112.765625 C 861.085938 109.492188 859.453125 106.449219 857.1875 104.234375 C 856.054688 103.140625 854.78125 102.261719 853.394531 101.648438 C 852.003906 101.027344 850.507812 100.695312 848.972656 100.539062 C 848.589844 100.5 848.203125 100.464844 847.808594 100.457031 C 847.417969 100.429688 847.023438 100.4375 846.628906 100.445312 L 846.039062 100.445312 L 845.398438 100.472656 L 844.113281 100.511719 L 838.9375 100.695312 C 837.1875 100.742188 835.441406 100.816406 833.628906 100.695312 C 831.835938 100.585938 829.992188 100.289062 828.234375 99.679688 C 826.480469 99.0625 824.910156 98.109375 823.453125 97.085938 C 823.097656 96.816406 822.746094 96.542969 822.390625 96.285156 C 822.042969 96.003906 821.71875 95.710938 821.378906 95.433594 C 820.683594 94.882812 820.066406 94.269531 819.398438 93.691406 C 818.730469 93.113281 818.117188 92.5 817.445312 91.921875 C 816.777344 91.355469 816.1875 90.84375 815.480469 90.4375 C 814.105469 89.605469 812.601562 89.199219 811.113281 89.117188 C 808.140625 88.90625 805.003906 89.832031 802.03125 91.253906 C 799.035156 92.667969 796.160156 94.519531 793.273438 96.480469 Z M 793.023438 96.265625 " fill-opacity="1" fill-rule="nonzero"/><path fill="#130b09" d="M 300.351562 301.152344 C 300.644531 286.039062 295.792969 301.152344 283.140625 301.152344 C 270.484375 301.152344 281.964844 295.40625 280.050781 293.5 C 278.136719 291.585938 268.578125 293.5 271.078125 287.757812 C 273.578125 282.011719 264.828125 273.113281 259.675781 278.261719 C 254.53125 283.410156 248.789062 279.734375 250.703125 276.792969 C 252.617188 273.84375 255.117188 279.589844 258.351562 271.9375 C 261.589844 264.285156 259.820312 265.015625 255.261719 267.519531 C 252.121094 269.25 250.230469 263.691406 247.292969 261.957031 C 245.964844 261.175781 244.429688 261.175781 242.46875 262.953125 C 236.140625 268.695312 236.21875 261.554688 238.722656 257.289062 C 241.222656 253.019531 257.917969 257.214844 255.269531 254.714844 C 252.617188 252.210938 244.234375 254.125 246.882812 250.296875 C 249.535156 246.46875 249.535156 248.96875 253.941406 246.46875 C 258.355469 243.964844 248.203125 245.140625 240.554688 246.46875 C 232.910156 247.792969 231.949219 244.480469 236.214844 237.710938 C 240.476562 230.941406 249.527344 236.164062 241.875 231.164062 C 234.230469 226.160156 240.699219 233.667969 229.816406 234.699219 C 218.929688 235.730469 217.464844 219.695312 225.035156 222.996094 C 235.992188 227.78125 236.140625 224.839844 234.230469 216.59375 C 232.316406 208.355469 224.667969 221.597656 222.167969 213.351562 C 219.667969 205.113281 219.667969 194.214844 225.992188 201.285156 C 232.320312 208.355469 234.824219 196.28125 232.320312 194.953125 C 229.820312 193.628906 224.085938 184.207031 225.992188 184.207031 C 227.90625 184.207031 234.964844 179.644531 229.820312 177.730469 C 224.675781 175.816406 218.195312 170.222656 222.761719 170.222656 C 227.324219 170.222656 241.292969 166.980469 238.0625 173.3125 C 234.824219 179.644531 239.238281 184.207031 242.476562 180.964844 C 245.714844 177.722656 250.566406 171.105469 246.890625 169.335938 C 243.214844 167.570312 237.472656 166.386719 239.972656 160.648438 C 242.476562 154.90625 247.621094 158.59375 252.035156 155.5 C 256.449219 152.410156 247.476562 135.773438 252.625 135.773438 C 257.769531 135.773438 256.59375 123.851562 261.597656 126.351562 C 266.597656 128.855469 271.011719 124.144531 272.777344 120.316406 C 274.539062 116.488281 274.394531 113.839844 278.660156 116.050781 C 282.921875 118.257812 283.804688 112.21875 284.691406 109.71875 C 285.582031 107.214844 295.726562 96.765625 291.019531 97.5 C 286.3125 98.230469 284.253906 95.441406 287.195312 94.554688 C 290.136719 93.671875 299.253906 94.996094 292.785156 105.152344 C 286.3125 115.304688 297.929688 111.480469 300.429688 107.210938 C 302.929688 102.941406 304.84375 104.707031 307.488281 108.089844 C 310.140625 111.476562 315.875 97.9375 317.636719 100.441406 C 319.402344 102.941406 324.402344 94.847656 328.230469 96.171875 C 332.054688 97.5 333.375 87.195312 339.703125 89.992188 C 346.03125 92.789062 354.414062 84.25 357.058594 89.992188 C 359.710938 95.734375 352.9375 87.195312 352.5 92.34375 C 352.0625 97.492188 355.742188 101.027344 360.003906 97.9375 C 364.269531 94.847656 372.652344 96.46875 371.039062 98.675781 C 369.421875 100.882812 384.722656 98.675781 383.839844 102.941406 C 382.957031 107.210938 395.605469 111.921875 395.605469 108.089844 C 395.605469 104.261719 404.140625 105.589844 400.753906 111.039062 C 397.363281 116.488281 391.628906 118.101562 398.695312 120.308594 C 405.753906 122.519531 397.519531 116.042969 407.078125 119.277344 C 416.640625 122.519531 409.285156 132.671875 417.378906 131.347656 C 425.46875 130.019531 428.558594 121.335938 429.296875 128.253906 C 430.03125 135.175781 426.207031 128.84375 424.878906 132.671875 C 423.554688 136.5 431.207031 137.820312 433.117188 136.5 C 435.027344 135.175781 437.671875 132.671875 438.261719 139.003906 C 438.847656 145.335938 440.914062 141.65625 447.820312 144.152344 C 454.730469 146.648438 451.058594 154.308594 447.820312 154.902344 C 444.582031 155.488281 465.179688 157.402344 458.707031 163.140625 C 452.234375 168.882812 459.296875 156.808594 452.234375 160.636719 C 445.175781 164.46875 453.410156 169.027344 456.0625 172.117188 C 458.714844 175.210938 460.328125 180.800781 453.410156 181.539062 C 446.496094 182.277344 458.707031 179.1875 458.707031 186.101562 C 458.707031 193.019531 457.824219 189.191406 452.824219 189.191406 C 447.820312 189.191406 461.359375 184.773438 458.707031 193.019531 C 456.054688 201.261719 462.089844 198.027344 458.707031 203.175781 C 455.324219 208.324219 463.265625 209.648438 458.707031 214.066406 C 454.148438 218.484375 453.046875 216.9375 457.015625 221.351562 C 460.984375 225.769531 461.652344 237.472656 455.324219 234.675781 C 448.996094 231.878906 458.707031 218.484375 451.648438 224.226562 C 444.589844 229.96875 454.738281 235.121094 450.324219 237.621094 C 445.910156 240.125 440.023438 224.226562 439.4375 234.675781 C 438.847656 245.125 440.023438 248.507812 437.523438 247.777344 C 435.023438 247.042969 428.109375 245.125 431.933594 252.78125 C 435.761719 260.433594 434.433594 267.503906 430.609375 266.175781 C 426.78125 264.847656 433.695312 272.652344 421.046875 273.828125 C 408.398438 275.003906 411.339844 276.179688 403.835938 278.832031 C 396.339844 281.503906 300.28125 304.902344 300.351562 301.152344 Z M 300.351562 301.152344 " fill-opacity="1" fill-rule="nonzero"/><g clip-path="url(#id8)"><path fill="#753a28" d="M 363.824219 237.640625 C 363.824219 237.640625 367.0625 279.445312 376.625 281.503906 C 386.183594 283.5625 433.109375 276.058594 444.4375 277.234375 C 455.769531 278.414062 480.84375 290.558594 485.410156 328.679688 C 489.617188 363.882812 481.214844 379.53125 481.214844 379.53125 L 340.070312 379.460938 L 205.632812 379.527344 C 205.632812 379.527344 224.835938 337.8125 246.144531 327.273438 C 254.40625 323.1875 279.390625 319.179688 285.863281 316.230469 C 292.332031 313.285156 310.867188 296.210938 310.867188 289.886719 C 310.867188 283.554688 301.601562 243.671875 301.601562 243.671875 Z M 363.824219 237.640625 " fill-opacity="1" fill-rule="nonzero"/></g><path fill="#5e2d21" d="M 365.152344 249.78125 C 365.164062 249.769531 365.167969 249.75 365.179688 249.738281 C 364.234375 242.878906 363.824219 237.632812 363.824219 237.632812 L 301.601562 243.671875 C 301.601562 243.671875 303.125 250.230469 304.933594 258.457031 C 308.558594 260.367188 311.902344 261.585938 314.25 261.847656 C 319.402344 262.4375 358.089844 259.347656 365.152344 249.78125 Z M 365.152344 249.78125 " fill-opacity="1" fill-rule="nonzero"/><path fill="#753a28" d="M 287.039062 194.804688 C 287.039062 194.804688 284.535156 207.164062 287.039062 219.824219 C 289.539062 232.480469 284.980469 238.070312 292.039062 245.140625 C 299.097656 252.203125 309.101562 257.359375 314.253906 257.949219 C 319.40625 258.535156 358.089844 255.445312 365.152344 245.878906 C 372.210938 236.3125 372.210938 234.691406 372.210938 234.691406 C 372.210938 234.691406 383.683594 235.726562 386.773438 231.898438 C 389.859375 228.066406 384.269531 137.109375 384.269531 137.109375 L 297.1875 137.109375 Z M 287.039062 194.804688 " fill-opacity="1" fill-rule="nonzero"/><path fill="#070403" d="M 339.257812 161.539062 C 348.777344 159.640625 356.023438 159.882812 361.769531 161.539062 L 370.519531 170.445312 C 363.945312 166.835938 344.847656 165.625 336.980469 168.679688 Z M 339.257812 161.539062 " fill-opacity="1" fill-rule="nonzero"/><path fill="#130b09" d="M 345.4375 141.820312 C 346.023438 148.585938 340.878906 149.175781 339.695312 151.382812 C 338.519531 153.59375 343.375 154.476562 342.640625 159.328125 C 341.902344 164.183594 336.464844 165.21875 339.554688 168.015625 C 342.640625 170.808594 335.289062 177.875 334.996094 172.136719 C 334.699219 166.394531 336.757812 166.835938 338.082031 161.539062 C 339.410156 156.238281 333.667969 154.179688 333.667969 158.003906 C 333.667969 161.832031 338.671875 172.429688 333.667969 170.515625 C 328.667969 168.601562 332.636719 168.75 331.613281 164.183594 C 330.582031 159.625 321.902344 158.886719 324.109375 163.445312 C 326.316406 168.007812 326.316406 178.898438 323.816406 174.339844 C 321.3125 169.777344 317.195312 170.367188 319.695312 175.371094 C 322.195312 180.375 312.929688 185.085938 312.339844 179.34375 C 311.753906 173.601562 311.089844 172.796875 310.207031 172.207031 C 309.324219 171.621094 304.839844 166.097656 304.839844 174.640625 C 304.839844 183.171875 301.160156 188.621094 299.988281 185.085938 C 298.8125 181.550781 298.367188 189.210938 295.867188 188.621094 C 293.363281 188.035156 288.511719 186.269531 291.746094 181.558594 C 294.984375 176.847656 286.007812 179.9375 285.863281 177.4375 C 285.710938 174.933594 294.539062 129.449219 294.539062 129.449219 L 391.480469 133.277344 C 391.480469 133.277344 400.601562 231.898438 391.480469 232.191406 C 382.359375 232.484375 376.917969 232.191406 379.125 228.066406 C 381.332031 223.945312 377.949219 228.65625 376.917969 224.828125 C 375.886719 221 376.332031 223.0625 378.242188 218.203125 C 380.15625 213.347656 373.535156 216.144531 374.710938 213.347656 C 375.886719 210.550781 380.007812 205.402344 377.210938 205.402344 C 374.417969 205.402344 369.566406 200.546875 375.003906 197.601562 C 380.445312 194.652344 376.472656 193.332031 371.765625 194.804688 C 367.058594 196.273438 366.621094 192.746094 369.558594 190.535156 C 372.503906 188.328125 373.234375 181.265625 370.589844 182.886719 C 367.941406 184.503906 372.355469 175.082031 373.679688 172.4375 C 375.003906 169.789062 369.851562 172.878906 367.644531 170.226562 C 365.4375 167.574219 356.902344 164.191406 358.816406 168.609375 C 360.730469 173.023438 366.464844 172.582031 362.644531 175.527344 C 358.816406 178.472656 365.730469 182.589844 361.90625 187.007812 C 358.078125 191.425781 359.40625 187.300781 360.4375 182.589844 C 361.46875 177.878906 359.261719 176.117188 358.085938 173.613281 C 356.910156 171.109375 351.320312 166.105469 354.410156 164.484375 C 357.496094 162.863281 360.292969 160.066406 355.878906 158.449219 C 351.464844 156.828125 355.726562 152.703125 354.410156 150.503906 C 353.082031 148.292969 347.9375 151.972656 347.644531 149.175781 C 347.351562 146.378906 345.4375 141.820312 345.4375 141.820312 Z M 345.4375 141.820312 " fill-opacity="1" fill-rule="nonzero"/><path fill="#5e2d21" d="M 367.6875 301.601562 C 367.417969 301.8125 367.117188 301.992188 366.816406 302.148438 C 366.519531 302.308594 366.207031 302.445312 365.894531 302.578125 C 365.269531 302.84375 364.632812 303.054688 363.992188 303.246094 C 363.351562 303.429688 362.710938 303.59375 362.066406 303.738281 C 361.425781 303.882812 360.777344 304 360.125 304.066406 C 359.472656 304.144531 358.8125 304.167969 358.152344 304.222656 C 357.492188 304.269531 356.835938 304.34375 356.195312 304.476562 C 355.554688 304.609375 354.929688 304.792969 354.320312 305.027344 C 353.714844 305.253906 353.125 305.550781 352.585938 305.886719 C 352.316406 306.054688 352.050781 306.234375 351.804688 306.414062 C 351.6875 306.511719 351.566406 306.601562 351.453125 306.703125 C 351.339844 306.796875 351.230469 306.898438 351.128906 306.996094 C 350.71875 307.398438 350.410156 307.824219 350.3125 308.246094 C 350.300781 308.296875 350.289062 308.347656 350.28125 308.398438 L 350.269531 308.476562 C 350.269531 308.503906 350.269531 308.53125 350.269531 308.554688 L 350.257812 308.785156 L 350.242188 309.066406 C 350.226562 309.253906 350.199219 309.433594 350.175781 309.617188 C 350.144531 309.796875 350.109375 309.980469 350.066406 310.160156 C 349.90625 310.871094 349.640625 311.550781 349.316406 312.179688 C 348.992188 312.8125 348.609375 313.398438 348.183594 313.953125 C 347.761719 314.503906 347.308594 315.011719 346.816406 315.492188 C 346.328125 315.972656 345.8125 316.417969 345.273438 316.824219 C 345.003906 317.03125 344.730469 317.226562 344.441406 317.40625 C 344.160156 317.59375 343.863281 317.761719 343.558594 317.917969 L 343.445312 317.78125 C 344.242188 316.707031 345.023438 315.660156 345.742188 314.597656 C 346.101562 314.070312 346.4375 313.53125 346.757812 312.992188 C 347.066406 312.449219 347.363281 311.90625 347.613281 311.351562 C 347.871094 310.800781 348.09375 310.25 348.265625 309.691406 C 348.308594 309.550781 348.34375 309.410156 348.382812 309.269531 C 348.410156 309.132812 348.445312 308.988281 348.472656 308.851562 L 348.5 308.640625 L 348.519531 308.53125 L 348.542969 308.375 C 348.550781 308.324219 348.5625 308.269531 348.566406 308.214844 L 348.601562 308.050781 C 348.628906 307.945312 348.664062 307.84375 348.699219 307.734375 C 348.847656 307.3125 349.078125 306.949219 349.347656 306.640625 C 349.480469 306.484375 349.621094 306.347656 349.765625 306.222656 C 349.839844 306.15625 349.910156 306.097656 349.988281 306.042969 C 350.066406 305.980469 350.136719 305.929688 350.222656 305.878906 C 350.535156 305.667969 350.859375 305.507812 351.183594 305.363281 C 351.507812 305.21875 351.835938 305.105469 352.160156 304.996094 C 352.320312 304.945312 352.488281 304.894531 352.652344 304.847656 C 352.8125 304.804688 352.976562 304.757812 353.144531 304.714844 L 354.113281 304.457031 L 354.59375 304.324219 L 354.835938 304.257812 L 355.074219 304.195312 C 355.390625 304.109375 355.710938 304.011719 356.027344 303.917969 C 357.292969 303.539062 358.535156 302.988281 359.808594 302.613281 C 360.441406 302.429688 361.089844 302.292969 361.738281 302.183594 C 362.386719 302.070312 363.035156 301.980469 363.679688 301.890625 C 364.328125 301.804688 364.976562 301.726562 365.625 301.65625 C 366.273438 301.582031 366.917969 301.511719 367.585938 301.425781 Z M 367.6875 301.601562 " fill-opacity="1" fill-rule="nonzero"/><path fill="#5e2d21" d="M 293.953125 317.859375 C 294.101562 317.792969 294.265625 317.75 294.421875 317.714844 C 294.578125 317.671875 294.738281 317.640625 294.894531 317.605469 C 295.210938 317.539062 295.53125 317.480469 295.847656 317.433594 C 296.484375 317.324219 297.125 317.238281 297.761719 317.15625 C 299.039062 316.992188 300.308594 316.875 301.589844 316.765625 C 304.136719 316.550781 306.679688 316.410156 309.222656 316.304688 C 311.765625 316.191406 314.304688 316.113281 316.832031 316.027344 C 318.097656 315.984375 319.363281 315.933594 320.628906 315.855469 C 321.261719 315.816406 321.894531 315.765625 322.519531 315.699219 C 323.148438 315.625 323.773438 315.535156 324.402344 315.367188 C 323.875 315.746094 323.261719 316.015625 322.65625 316.257812 C 322.046875 316.496094 321.421875 316.683594 320.792969 316.855469 C 319.53125 317.199219 318.261719 317.4375 316.988281 317.640625 C 315.710938 317.847656 314.433594 317.996094 313.152344 318.109375 C 311.875 318.230469 310.589844 318.308594 309.308594 318.363281 C 306.746094 318.46875 304.179688 318.476562 301.625 318.378906 C 300.347656 318.332031 299.0625 318.261719 297.785156 318.164062 C 297.144531 318.117188 296.507812 318.0625 295.867188 318.003906 L 294.90625 317.917969 C 294.746094 317.898438 294.589844 317.886719 294.425781 317.882812 C 294.277344 317.863281 294.113281 317.851562 293.953125 317.859375 Z M 293.953125 317.859375 " fill-opacity="1" fill-rule="nonzero"/><path fill="#5e2d21" d="M 417.265625 284.105469 C 416.640625 284.585938 415.984375 284.988281 415.320312 285.375 C 414.660156 285.757812 413.984375 286.113281 413.304688 286.441406 C 412.621094 286.773438 411.933594 287.082031 411.234375 287.378906 C 410.539062 287.671875 409.832031 287.9375 409.101562 288.140625 C 407.636719 288.554688 406.101562 288.765625 404.667969 289.25 C 403.230469 289.722656 401.863281 290.378906 400.53125 291.121094 C 400.195312 291.308594 399.863281 291.496094 399.527344 291.675781 L 399.023438 291.945312 C 398.855469 292.027344 398.6875 292.125 398.515625 292.210938 C 397.835938 292.558594 397.148438 292.855469 396.457031 293.175781 C 395.078125 293.800781 393.699219 294.429688 392.277344 294.941406 C 391.570312 295.199219 390.851562 295.4375 390.125 295.660156 C 389.40625 295.886719 388.671875 296.097656 387.933594 296.289062 C 387.199219 296.488281 386.460938 296.667969 385.710938 296.824219 C 384.960938 296.980469 384.203125 297.125 383.429688 297.214844 L 383.351562 297.011719 C 383.988281 296.554688 384.644531 296.152344 385.300781 295.761719 C 385.960938 295.371094 386.632812 295.011719 387.304688 294.65625 C 387.976562 294.308594 388.660156 293.972656 389.351562 293.648438 C 390.035156 293.324219 390.730469 293.019531 391.425781 292.730469 C 392.824219 292.148438 394.261719 291.6875 395.703125 291.21875 C 396.421875 290.984375 397.140625 290.746094 397.875 290.546875 C 398.054688 290.492188 398.238281 290.449219 398.425781 290.398438 L 398.976562 290.257812 C 399.347656 290.164062 399.722656 290.078125 400.085938 289.988281 C 401.574219 289.640625 403.027344 289.203125 404.40625 288.585938 C 405.789062 287.976562 407.074219 287.097656 408.429688 286.417969 C 409.105469 286.074219 409.808594 285.792969 410.523438 285.542969 C 411.234375 285.289062 411.957031 285.050781 412.679688 284.839844 C 413.40625 284.628906 414.144531 284.429688 414.894531 284.269531 C 415.644531 284.113281 416.398438 283.96875 417.179688 283.898438 Z M 417.265625 284.105469 " fill-opacity="1" fill-rule="nonzero"/><path fill="#ead9d3" d="M 334.550781 226.453125 L 328.230469 218.652344 L 306.894531 219.972656 L 307.925781 227.042969 Z M 334.550781 226.453125 " fill-opacity="1" fill-rule="nonzero"/><path fill="#681b19" d="M 303.808594 223.65625 C 303.808594 223.65625 304.839844 215.710938 309.398438 213.941406 C 313.953125 212.175781 316.605469 213.941406 316.605469 213.941406 C 316.605469 213.941406 320.726562 212.472656 322.933594 212.613281 C 329.554688 213.058594 336.757812 226.449219 336.757812 226.449219 C 336.757812 226.449219 325.578125 222.914062 323.226562 220.558594 C 320.28125 221.886719 316.019531 221.59375 313.515625 220.855469 C 313.402344 221.941406 304.6875 225.066406 303.808594 223.65625 Z M 303.808594 223.65625 " fill-opacity="1" fill-rule="nonzero"/><path fill="#701c1c" d="M 303.808594 223.65625 C 303.808594 223.65625 303.808594 230.71875 308.222656 232.636719 C 311.707031 234.148438 321.609375 235.875 328.667969 232.339844 C 335.726562 228.804688 336.757812 226.453125 336.757812 226.453125 C 336.757812 226.453125 325.722656 222.1875 316.605469 225.570312 C 316.605469 225.570312 309.691406 222.332031 303.808594 223.65625 Z M 303.808594 223.65625 " fill-opacity="1" fill-rule="nonzero"/><path fill="#5e2d21" d="M 423.609375 379.527344 L 423.621094 347.515625 L 417.222656 379.527344 Z M 423.609375 379.527344 " fill-opacity="1" fill-rule="nonzero"/><path fill="#5e2d21" d="M 258.386719 379.527344 L 258.429688 363.558594 L 266.015625 379.527344 Z M 258.386719 379.527344 " fill-opacity="1" fill-rule="nonzero"/><path fill="#5e2d21" d="M 426.121094 278.191406 C 426.121094 278.191406 394.347656 316.605469 390.234375 358.558594 C 389.140625 369.65625 323.234375 372.800781 306.386719 371.507812 C 273.730469 369.007812 282.863281 317.269531 282.863281 317.269531 L 276.546875 319.136719 C 276.546875 319.136719 277.453125 339.257812 279.167969 347.523438 C 283.140625 366.652344 281.515625 373.359375 311.238281 375.78125 C 347.277344 378.730469 409.246094 379.496094 414.671875 379.53125 C 414.671875 379.53125 396.117188 367.476562 396.996094 353.847656 C 399.5 315.132812 431.902344 277.632812 431.902344 277.632812 Z M 426.121094 278.191406 " fill-opacity="1" fill-rule="nonzero"/><path stroke-linecap="butt" transform="matrix(0.599761, 0, 0, 0.600122, 205.632187, 87.975551)" fill-opacity="1" fill="#ead9d3" fill-rule="nonzero" stroke-linejoin="miter" d="M 363.459758 320.151521 C 363.459758 320.151521 310.482906 380.979014 303.61819 450.880185 C 301.801059 469.372524 250.888833 447.690728 229.799696 459.218335 C 208.710558 470.752452 176.927053 461.808955 159.902036 466.580122 C 116.981277 478.60242 125.832462 383.068433 125.832462 383.068433 L 114.812444 385.932435 C 114.812444 385.932435 116.538392 418.562528 118.440192 432.491991 C 124.327956 475.660309 100.7769 485.840534 100.7769 485.840534 L 344.370115 485.840534 C 344.370115 485.840534 315.152737 466.000812 316.618165 443.29058 C 320.793007 378.77894 374.570959 316.050792 374.570959 316.050792 Z M 363.459758 320.151521 " stroke="#ead9d3" stroke-width="0.731" stroke-opacity="1" stroke-miterlimit="10"/><path fill="#130b09" d="M 367.652344 242.410156 C 367.652344 242.410156 361.324219 249.707031 361.769531 255.59375 C 362.210938 261.484375 360.738281 265.457031 364.710938 266.636719 C 368.683594 267.8125 364.269531 270.316406 364.710938 275.472656 C 365.15625 280.621094 372.101562 277.074219 372.101562 277.074219 C 372.101562 277.074219 365.007812 291.511719 372.070312 290.488281 C 379.132812 289.453125 367.621094 288.21875 373.453125 286.707031 C 379.28125 285.195312 387.222656 288.429688 383.402344 290.488281 C 379.574219 292.546875 389.441406 299.332031 391.9375 293.804688 C 394.429688 288.277344 393.988281 296.816406 400.316406 295.9375 C 406.640625 295.054688 408.550781 289.167969 406.199219 284.011719 C 403.847656 278.863281 421.203125 282.542969 425.324219 280.183594 C 429.445312 277.832031 436.503906 277.234375 433.859375 273.851562 C 431.207031 270.464844 425.03125 271.644531 422.824219 265.753906 C 420.605469 259.863281 367.652344 242.410156 367.652344 242.410156 Z M 367.652344 242.410156 " fill-opacity="1" fill-rule="nonzero"/><g clip-path="url(#id9)"><g clip-path="url(#id10)"><g clip-path="url(#id11)"><path fill="#f5b11e" d="M 999.761719 359.246094 C 996.703125 355.785156 990.59375 355.324219 982.976562 357.972656 C 969.914062 362.628906 942.253906 369.382812 926.632812 371.785156 C 938.761719 362.691406 949.722656 352.074219 959.203125 340.203125 C 974.828125 345.972656 1002.847656 353.015625 1016.515625 336.171875 C 1018.1875 334.011719 1019.5625 331.8125 1020.625 329.648438 C 1023.980469 322.828125 1023.945312 316.679688 1020.554688 313.582031 C 1017.265625 310.597656 1011.675781 311.171875 1005.1875 315.15625 C 995.269531 321.351562 973.542969 332.625 960.71875 338.285156 C 966.15625 331.289062 971.078125 323.871094 975.4375 316.09375 C 976.992188 313.308594 978.464844 310.496094 979.863281 307.648438 C 980.277344 306.808594 980.675781 305.960938 981.078125 305.113281 C 1006.652344 308.183594 1023.53125 303.25 1029.894531 290.828125 L 1029.898438 290.824219 C 1034.71875 280.832031 1033.28125 273.703125 1029.714844 271.066406 C 1026.328125 268.5625 1021.210938 269.933594 1016.015625 274.75 C 1008.773438 281.53125 992.285156 295.183594 982.125 302.847656 C 987.160156 291.765625 991.046875 280.21875 993.730469 268.421875 L 993.730469 268.417969 C 1014.109375 266.328125 1026.808594 260.445312 1031.488281 250.917969 C 1031.996094 249.878906 1032.410156 248.785156 1032.734375 247.65625 C 1035.144531 238.445312 1032.710938 232.628906 1029.222656 230.960938 C 1025.886719 229.363281 1021.707031 231.371094 1018.03125 236.328125 C 1012.726562 243.570312 1001.207031 257.828125 994.257812 266 C 996.570312 255.15625 997.875 244.109375 998.148438 233.023438 L 998.296875 232.929688 C 1004.199219 231.039062 1018.546875 226.28125 1023.191406 216.816406 C 1023.972656 215.242188 1024.449219 213.589844 1024.640625 211.875 C 1025.207031 205.664062 1023.277344 200.804688 1019.835938 199.78125 C 1017.058594 198.949219 1014.066406 200.976562 1011.832031 205.199219 C 1009.164062 210.285156 1003.75 220.210938 999.792969 227.457031 L 998.199219 230.394531 C 998.296875 220.394531 997.558594 210.375 995.953125 200.453125 L 995.980469 200.429688 C 1000.179688 198.125 1007.511719 193.988281 1010.367188 188.175781 C 1011.203125 186.480469 1011.582031 184.742188 1011.507812 183.007812 C 1011.285156 178.867188 1009.535156 175.753906 1007.15625 175.269531 C 1005.363281 174.898438 1003.648438 176.097656 1002.445312 178.546875 C 1002.269531 178.90625 1002.101562 179.308594 1001.933594 179.734375 C 1000.441406 183.820312 997.03125 193.464844 995.1875 199.316406 C 991.789062 194.578125 984.789062 187.820312 981.046875 185.304688 C 978.566406 183.617188 976.789062 183.59375 975.738281 183.871094 C 974.71875 184.140625 973.933594 184.800781 973.457031 185.773438 C 972.648438 187.417969 972.863281 189.75 974.046875 192.023438 C 976.769531 197.378906 986.347656 199.097656 992.679688 200.234375 C 993.425781 200.367188 994.113281 200.492188 994.746094 200.613281 L 994.800781 200.640625 C 996.386719 210.496094 997.109375 220.355469 997.011719 230.117188 C 993.1875 222.726562 985.351562 212.796875 980.738281 208.933594 C 978.082031 206.679688 975.371094 205.699219 973.101562 206.175781 C 971.507812 206.507812 970.214844 207.535156 969.453125 209.089844 C 968.460938 211.101562 968.472656 213.832031 969.472656 216.585938 C 972.039062 223.851562 984.164062 228.246094 993.023438 231.453125 C 994.429688 231.960938 995.726562 232.4375 996.882812 232.878906 L 996.960938 232.933594 C 996.675781 243.839844 995.375 254.617188 993.125 265.148438 C 990.203125 254.804688 982.246094 240.394531 976.953125 234.691406 C 973.78125 231.207031 970.304688 229.527344 967.160156 229.976562 C 964.863281 230.296875 962.992188 231.71875 961.886719 233.972656 C 960.84375 236.101562 960.597656 238.726562 961.171875 241.554688 C 962.851562 250.304688 976.640625 258.527344 986.710938 264.539062 C 988.816406 265.792969 990.804688 266.980469 992.484375 268.054688 C 989.808594 279.597656 985.996094 290.816406 981.140625 301.554688 C 980.441406 289.230469 974.691406 271.304688 969.839844 263.882812 C 966.785156 259.078125 962.820312 256.4375 958.972656 256.652344 C 956.015625 256.820312 953.484375 258.613281 952.027344 261.578125 C 951.148438 263.355469 950.714844 265.496094 950.757812 267.78125 C 950.820312 277.253906 963.378906 288.957031 973.476562 298.351562 C 975.804688 300.527344 978.015625 302.585938 979.820312 304.402344 C 974.410156 315.820312 967.808594 326.664062 960.128906 336.71875 C 962.871094 322.160156 960.21875 300.859375 956.769531 292.554688 C 954.242188 286.164062 950.113281 282.394531 945.441406 282.203125 C 941.710938 282.058594 938.351562 284.277344 936.453125 288.148438 C 935.851562 289.367188 935.417969 290.722656 935.15625 292.164062 C 933.265625 301.921875 943.695312 317.433594 952.082031 329.90625 C 954.355469 333.296875 956.507812 336.496094 958.171875 339.234375 C 948.992188 350.820312 938.359375 361.308594 926.457031 370.371094 C 926.605469 370.078125 926.761719 369.792969 926.910156 369.492188 C 934.117188 354.808594 937.46875 331.007812 935.542969 320.351562 C 934.234375 312.152344 930.09375 306.761719 924.480469 305.917969 C 919.773438 305.214844 915.109375 308.066406 912.597656 313.179688 C 912.464844 313.457031 912.335938 313.738281 912.21875 314.019531 C 908.007812 323.511719 914.457031 342.753906 919.640625 358.203125 C 921.359375 363.324219 922.984375 368.171875 924.0625 372.160156 C 912.382812 380.742188 899.539062 387.972656 885.683594 393.535156 C 885.382812 393.660156 885.234375 393.996094 885.355469 394.300781 C 885.476562 394.605469 885.8125 394.746094 886.117188 394.621094 C 899.886719 389.097656 912.847656 381.867188 924.730469 373.195312 C 937.164062 382.066406 968.0625 400.664062 989.460938 384.324219 C 994.226562 380.453125 997.824219 376.203125 999.871094 372.039062 C 1002.410156 366.855469 1002.378906 362.199219 999.761719 359.246094 " fill-opacity="1" fill-rule="nonzero"/></g></g></g><g clip-path="url(#id12)"><g clip-path="url(#id13)"><g clip-path="url(#id14)"><path fill="#f5b11e" d="M 102.875 356.707031 C 106.242188 353.546875 112.371094 353.652344 119.707031 356.996094 C 132.285156 362.84375 159.195312 372.136719 174.527344 375.976562 C 163.292969 365.796875 153.367188 354.207031 145.027344 341.511719 C 128.9375 345.804688 100.382812 350.21875 88.335938 332.179688 C 86.875 329.875 85.707031 327.554688 84.851562 325.300781 C 82.144531 318.199219 82.746094 312.082031 86.410156 309.3125 C 89.960938 306.644531 95.476562 307.734375 101.5625 312.304688 C 110.867188 319.394531 131.453125 332.636719 143.695312 339.460938 C 138.933594 331.988281 134.71875 324.148438 131.101562 315.996094 C 129.8125 313.082031 128.605469 310.144531 127.476562 307.179688 C 127.140625 306.304688 126.824219 305.421875 126.5 304.539062 C 100.753906 305.226562 84.40625 298.75 79.222656 285.789062 L 79.21875 285.785156 C 75.347656 275.390625 77.4375 268.425781 81.230469 266.128906 C 84.835938 263.949219 89.804688 265.792969 94.53125 271.070312 C 101.113281 278.492188 116.261719 293.613281 125.671875 302.1875 C 121.683594 290.6875 118.886719 278.832031 117.308594 266.832031 C 97.210938 262.863281 85.113281 255.824219 81.335938 245.90625 C 80.925781 244.824219 80.613281 243.695312 80.398438 242.542969 C 78.851562 233.144531 81.816406 227.578125 85.445312 226.242188 C 88.910156 224.960938 92.886719 227.347656 96.085938 232.625 C 100.699219 240.328125 110.84375 255.589844 117.007812 264.371094 C 115.710938 253.363281 115.4375 242.242188 116.191406 231.179688 L 116.050781 231.070312 C 110.351562 228.640625 96.503906 222.574219 92.757812 212.722656 C 92.128906 211.078125 91.804688 209.386719 91.773438 207.664062 C 91.785156 201.425781 94.160156 196.769531 97.679688 196.070312 C 100.523438 195.5 103.3125 197.792969 105.148438 202.203125 C 107.332031 207.515625 111.804688 217.902344 115.070312 225.484375 L 116.386719 228.554688 C 117.214844 218.589844 118.882812 208.683594 121.398438 198.953125 L 121.375 198.925781 C 117.40625 196.242188 110.488281 191.445312 108.1875 185.390625 C 107.511719 183.628906 107.296875 181.859375 107.53125 180.140625 C 108.132812 176.035156 110.167969 173.101562 112.578125 172.839844 C 114.398438 172.636719 115.996094 173.988281 116.964844 176.539062 C 117.109375 176.914062 117.238281 177.328125 117.367188 177.769531 C 118.472656 181.972656 120.972656 191.894531 122.265625 197.890625 C 126.089844 193.488281 133.6875 187.410156 137.644531 185.253906 C 140.273438 183.804688 142.042969 183.945312 143.0625 184.320312 C 144.054688 184.679688 144.777344 185.410156 145.160156 186.421875 C 145.8125 188.132812 145.378906 190.4375 143.996094 192.59375 C 140.785156 197.671875 131.089844 198.492188 124.675781 199.039062 C 123.925781 199.101562 123.226562 199.164062 122.582031 199.226562 L 122.53125 199.246094 C 120.035156 208.914062 118.402344 218.660156 117.59375 228.390625 C 122.089844 221.386719 130.8125 212.226562 135.761719 208.808594 C 138.617188 206.8125 141.40625 206.085938 143.621094 206.773438 C 145.175781 207.25 146.367188 208.390625 146.984375 210.011719 C 147.78125 212.105469 147.519531 214.824219 146.269531 217.472656 C 143.042969 224.46875 130.558594 227.71875 121.441406 230.089844 C 119.992188 230.464844 118.65625 230.820312 117.46875 231.15625 L 117.382812 231.199219 C 116.65625 242.085938 116.953125 252.9375 118.214844 263.632812 C 122.082031 253.605469 131.34375 239.996094 137.144531 234.808594 C 140.621094 231.632812 144.242188 230.28125 147.328125 231.019531 C 149.585938 231.550781 151.316406 233.140625 152.207031 235.488281 C 153.050781 237.707031 153.050781 240.339844 152.21875 243.101562 C 149.734375 251.660156 135.238281 258.566406 124.65625 263.617188 C 122.441406 264.671875 120.355469 265.671875 118.582031 266.582031 C 120.175781 278.324219 122.929688 289.851562 126.769531 300.992188 C 128.609375 288.789062 135.996094 271.472656 141.515625 264.53125 C 145.003906 260.027344 149.195312 257.769531 153.007812 258.339844 C 155.9375 258.78125 158.292969 260.800781 159.464844 263.890625 C 160.175781 265.742188 160.40625 267.914062 160.152344 270.179688 C 159.214844 279.609375 145.625 290.097656 134.695312 298.515625 C 132.175781 300.464844 129.785156 302.3125 127.820312 303.949219 C 132.148438 315.820312 137.714844 327.230469 144.429688 337.953125 C 143.046875 323.203125 147.667969 302.238281 151.871094 294.289062 C 154.980469 288.164062 159.441406 284.792969 164.109375 285.039062 C 167.839844 285.238281 170.976562 287.761719 172.507812 291.789062 C 172.992188 293.058594 173.300781 294.449219 173.425781 295.910156 C 174.40625 305.796875 162.582031 320.277344 153.074219 331.917969 C 150.496094 335.082031 148.058594 338.066406 146.144531 340.640625 C 154.210938 353.03125 163.824219 364.457031 174.835938 374.585938 C 174.710938 374.277344 174.585938 373.980469 174.46875 373.667969 C 168.652344 358.378906 167.519531 334.371094 170.425781 323.941406 C 172.492188 315.894531 177.113281 310.910156 182.78125 310.59375 C 187.53125 310.328125 191.914062 313.601562 193.9375 318.925781 C 194.046875 319.214844 194.148438 319.507812 194.238281 319.796875 C 197.550781 329.640625 189.347656 348.199219 182.75 363.101562 C 180.566406 368.042969 178.496094 372.714844 177.054688 376.585938 C 187.882812 386.214844 200.003906 394.605469 213.285156 401.433594 C 213.574219 401.582031 213.6875 401.933594 213.539062 402.226562 C 213.390625 402.515625 213.042969 402.625 212.75 402.472656 C 199.554688 395.695312 187.320312 387.292969 176.292969 377.558594 C 163.089844 385.238281 130.597656 400.886719 110.808594 382.632812 C 106.421875 378.335938 103.234375 373.769531 101.582031 369.433594 C 99.535156 364.039062 100 359.40625 102.875 356.707031 " fill-opacity="1" fill-rule="nonzero"/></g></g></g></svg>